<svg
        xmlns="http://www.w3.org/2000/svg"
        xmlns:xlink="http://www.w3.org/1999/xlink"
        width="27px" height="30px">
    <path fill-rule="evenodd"
          d="M24.627,20.438 C22.860,18.911 21.597,14.852 21.597,10.085 C21.597,6.476 19.277,3.417 16.051,2.296 C15.833,0.995 14.709,-0.000 13.346,-0.000 C11.982,-0.000 10.859,0.995 10.641,2.296 C7.415,3.417 5.095,6.476 5.095,10.085 C5.095,14.851 3.832,18.909 2.065,20.438 C1.078,21.291 0.511,22.531 0.511,23.837 C0.511,25.355 1.742,26.587 3.261,26.587 L10.596,26.587 C10.596,28.106 11.827,29.337 13.346,29.337 C14.865,29.337 16.096,28.106 16.096,26.587 L23.431,26.587 C24.950,26.587 26.181,25.355 26.181,23.837 C26.181,22.532 25.614,21.292 24.627,20.438 ZM3.261,23.837 C3.261,23.331 3.481,22.849 3.864,22.518 C6.319,20.395 7.845,15.630 7.845,10.085 C7.845,7.051 10.313,4.584 13.346,4.584 C16.379,4.584 18.847,7.051 18.847,10.085 C18.847,15.631 20.372,20.395 22.828,22.519 C23.211,22.850 23.431,23.331 23.431,23.837 L3.261,23.837 Z"/>
</svg>