<svg xmlns="http://www.w3.org/2000/svg" xmlns:xlink="http://www.w3.org/1999/xlink" width="34px" height="47px">
    <path fill-rule="evenodd"
          d="M20.078,11.696 L20.078,5.848 L23.002,5.848 L23.002,11.696 L20.078,11.696 ZM14.230,5.848 L14.230,11.696 L11.306,11.696 L11.306,5.848 L14.230,5.848 ZM19.079,20.393 L18.153,17.619 L30.087,13.641 L28.850,7.310 L28.850,2.924 L5.458,2.924 L5.430,7.597 L4.221,13.641 L16.155,17.619 L15.229,20.393 L0.847,15.599 L2.534,7.165 L2.534,-0.000 L31.774,-0.000 L31.774,7.165 L33.461,15.599 L19.079,20.393 ZM17.154,23.392 C23.603,23.392 28.850,28.639 28.850,35.088 C28.850,41.537 23.603,46.784 17.154,46.784 C10.705,46.784 5.458,41.537 5.458,35.088 C5.458,28.639 10.705,23.392 17.154,23.392 ZM17.154,43.860 C21.991,43.860 25.926,39.925 25.926,35.088 C25.926,30.251 21.991,26.316 17.154,26.316 C12.317,26.316 8.382,30.251 8.382,35.088 C8.382,39.925 12.317,43.860 17.154,43.860 ZM17.154,29.240 L17.154,32.164 C15.541,32.164 14.230,33.475 14.230,35.088 L11.306,35.088 C11.306,31.863 13.929,29.240 17.154,29.240 Z"/>
</svg>