<svg
        xmlns="http://www.w3.org/2000/svg"
        xmlns:xlink="http://www.w3.org/1999/xlink"
        width="30px" height="30px">
    <path fill-rule="evenodd"
          d="M11.002,-0.000 C17.077,-0.000 22.003,4.926 22.003,11.002 C22.003,13.543 21.133,15.877 19.684,17.739 L28.935,26.990 C29.203,27.259 29.338,27.609 29.338,27.962 C29.338,28.314 29.203,28.666 28.935,28.935 C28.666,29.203 28.314,29.338 27.962,29.338 C27.611,29.338 27.259,29.203 26.990,28.935 L17.740,19.684 C15.877,21.133 13.543,22.003 11.002,22.003 C4.926,22.003 -0.000,17.077 -0.000,11.002 C-0.000,4.926 4.926,-0.000 11.002,-0.000 ZM11.002,19.253 C15.552,19.253 19.253,15.551 19.253,11.002 C19.253,6.451 15.552,2.750 11.002,2.750 C6.452,2.750 2.750,6.451 2.750,11.002 C2.750,15.551 6.452,19.253 11.002,19.253 Z"/>
</svg>