<svg
        xmlns="http://www.w3.org/2000/svg"
        xmlns:xlink="http://www.w3.org/1999/xlink"
        width="33px" height="34px">
    <path fill-rule="evenodd"
          d="M30.814,11.954 C30.311,10.723 29.083,10.020 27.824,10.109 C26.400,7.013 24.740,4.023 22.839,1.176 C22.565,0.766 22.076,0.555 21.591,0.638 C21.499,0.653 21.410,0.678 21.326,0.713 C20.966,0.860 20.690,1.169 20.589,1.556 C19.279,6.607 15.207,10.763 10.578,12.652 L5.022,14.919 C1.443,16.380 -0.275,20.465 1.186,24.045 C2.647,27.625 6.732,29.342 10.312,27.881 C11.294,30.288 13.195,32.149 15.593,33.081 C15.775,33.151 15.978,33.143 16.154,33.057 C16.329,32.972 16.461,32.816 16.517,32.629 L17.267,30.127 C17.369,29.786 17.201,29.423 16.873,29.283 C15.579,28.728 14.555,27.693 14.015,26.370 L15.867,25.614 C20.497,23.725 26.314,23.845 30.784,26.538 C31.126,26.744 31.541,26.772 31.900,26.625 C31.985,26.591 32.066,26.547 32.142,26.494 C32.548,26.212 32.748,25.720 32.657,25.236 C32.023,21.871 31.118,18.573 29.969,15.365 C30.931,14.548 31.317,13.187 30.814,11.954 ZM9.179,25.104 C7.136,25.937 4.797,24.954 3.964,22.911 C3.130,20.869 4.114,18.530 6.156,17.697 L9.859,16.185 L12.882,23.592 L9.179,25.104 ZM28.974,22.403 C24.799,20.957 20.017,20.980 15.677,22.502 L12.620,15.009 C16.785,13.060 20.218,9.731 22.189,5.776 C25.258,10.974 27.531,16.543 28.974,22.403 Z"/>
</svg>