<svg
        xmlns="http://www.w3.org/2000/svg"
        xmlns:xlink="http://www.w3.org/1999/xlink"
        width="32px" height="32px">
    <path fill-rule="evenodd"
          d="M16.000,32.000 C7.163,32.000 0.000,24.836 0.000,16.000 C0.000,7.164 7.163,-0.000 16.000,-0.000 C24.837,-0.000 32.000,7.164 32.000,16.000 C32.000,24.836 24.837,32.000 16.000,32.000 ZM16.000,3.000 C8.832,3.000 3.000,8.832 3.000,16.000 C3.000,23.168 8.832,29.000 16.000,29.000 C23.168,29.000 29.000,23.168 29.000,16.000 C29.000,8.832 23.168,3.000 16.000,3.000 ZM20.786,17.453 C20.303,19.045 19.046,20.302 17.453,20.785 L10.291,22.957 C10.199,22.984 10.101,23.000 10.000,23.000 C9.448,23.000 9.000,22.552 9.000,22.000 C9.000,21.898 9.015,21.801 9.043,21.709 L11.215,14.547 C11.698,12.955 12.954,11.697 14.548,11.215 L21.710,9.043 C21.801,9.016 21.899,9.000 22.000,9.000 C22.552,9.000 23.000,9.447 23.000,10.000 C23.000,10.101 22.985,10.199 22.957,10.291 L20.786,17.453 ZM16.000,14.000 C14.896,14.000 14.000,14.895 14.000,16.000 C14.000,17.104 14.896,18.000 16.000,18.000 C17.105,18.000 18.000,17.104 18.000,16.000 C18.000,14.895 17.105,14.000 16.000,14.000 Z"/>
</svg>