<svg
        xmlns="http://www.w3.org/2000/svg"
        xmlns:xlink="http://www.w3.org/1999/xlink"
        width="32px" height="26px">
    <path fill-rule="evenodd"
          d="M2.000,-0.000 C0.895,-0.000 -0.000,0.895 -0.000,2.000 L-0.000,24.000 C-0.000,25.104 0.895,26.000 2.000,26.000 L30.000,26.000 C31.104,26.000 32.000,25.104 32.000,24.000 L32.000,2.000 C32.000,0.895 31.104,-0.000 30.000,-0.000 L2.000,-0.000 ZM29.000,3.000 L29.000,3.785 L16.000,14.693 L3.000,3.785 L3.000,3.000 L29.000,3.000 ZM3.000,23.000 L3.000,7.701 L14.714,17.531 C15.087,17.843 15.543,18.000 16.000,18.000 C16.456,18.000 16.913,17.843 17.285,17.531 L29.000,7.701 L29.000,23.000 L3.000,23.000 Z"/>
</svg>