<svg
        xmlns="http://www.w3.org/2000/svg"
        xmlns:xlink="http://www.w3.org/1999/xlink"
        width="32px" height="32px">
    <path fill-rule="evenodd"
          d="M30.000,18.000 L28.830,18.000 C28.506,20.095 27.687,22.021 26.487,23.660 L27.413,24.585 C27.804,24.974 27.999,25.486 27.999,25.999 C27.999,26.510 27.805,27.022 27.413,27.413 C27.025,27.803 26.514,27.998 26.002,27.999 C25.489,28.000 24.977,27.805 24.585,27.413 L23.659,26.487 C22.021,27.686 20.095,28.506 18.000,28.830 L18.000,30.000 C18.000,31.104 17.105,32.000 16.000,32.000 C14.896,32.000 14.000,31.104 14.000,30.000 L14.000,28.830 C11.905,28.506 9.980,27.686 8.341,26.488 L7.414,27.414 C7.025,27.805 6.513,28.000 6.000,28.000 C5.489,28.000 4.977,27.806 4.586,27.414 C4.196,27.025 4.001,26.515 4.000,26.004 C3.999,25.490 4.194,24.977 4.586,24.586 L5.513,23.660 C4.314,22.021 3.494,20.095 3.170,18.000 L2.000,18.000 C0.896,18.000 0.000,17.104 0.000,16.000 C0.000,14.895 0.896,14.000 2.000,14.000 L3.170,14.000 C3.494,11.905 4.314,9.979 5.512,8.342 L4.585,7.414 C4.194,7.023 3.999,6.512 3.999,6.000 C3.999,5.488 4.194,4.976 4.585,4.586 C4.976,4.194 5.487,3.999 5.998,3.999 C6.511,3.999 7.023,4.194 7.413,4.586 L8.340,5.513 C9.979,4.314 11.905,3.494 14.000,3.170 L14.000,2.000 C14.000,0.895 14.896,-0.000 16.000,-0.000 C17.105,-0.000 18.000,0.895 18.000,2.000 L18.000,3.170 C20.095,3.494 22.021,4.313 23.659,5.512 L24.585,4.586 C24.976,4.195 25.487,4.000 25.999,4.000 C26.511,4.000 27.023,4.195 27.413,4.586 C27.805,4.976 28.000,5.488 28.000,6.000 C28.000,6.512 27.805,7.023 27.413,7.414 L26.487,8.340 C27.687,9.978 28.506,11.905 28.830,14.000 L30.000,14.000 C31.105,14.000 32.000,14.895 32.000,16.000 C32.000,17.104 31.105,18.000 30.000,18.000 ZM16.000,6.000 C10.486,6.000 6.000,10.486 6.000,16.000 C6.000,21.514 10.486,26.000 16.000,26.000 C21.514,26.000 26.000,21.514 26.000,16.000 C26.000,10.486 21.514,6.000 16.000,6.000 ZM16.000,22.000 C12.687,22.000 10.000,19.314 10.000,16.000 C10.000,12.685 12.687,10.000 16.000,10.000 C19.314,10.000 22.000,12.685 22.000,16.000 C22.000,19.314 19.314,22.000 16.000,22.000 ZM16.000,13.000 C14.346,13.000 13.000,14.346 13.000,16.000 C13.000,17.654 14.346,19.000 16.000,19.000 C17.654,19.000 19.000,17.654 19.000,16.000 C19.000,14.346 17.654,13.000 16.000,13.000 Z"/>
</svg>